<svg width="500" height="500" xmlns="http://www.w3.org/2000/svg">

 <g>
  <title>background</title>
  <rect fill="none" id="canvas_background" height="402" width="582" y="-1" x="-1"/>
 </g>
 <g>
  <title>Layer 1</title>
  <g stroke="null" id="svg_14">
   <path fill="#6a737d" stroke="null" id="svg_5" d="m313.387571,385.597778l-42.916569,0c0,-59.04944 -48.085353,-107.134792 -107.134792,-107.134792s-107.134792,48.085353 -107.134792,107.134792l-42.916569,0c0,-82.700541 67.35082,-150.051361 150.051361,-150.051361s150.051361,67.35082 150.051361,150.051361z"/>
   <path fill="#6a737d" stroke="null" id="svg_7" d="m377.762425,299.764641c-47.302204,0 -85.833138,-38.530934 -85.833138,-85.833138c0,-47.302204 38.530934,-85.833138 85.833138,-85.833138c47.302204,0 85.833138,38.530934 85.833138,85.833138c-0.15663,47.458833 -38.530934,85.833138 -85.833138,85.833138zm0,-128.593077c-23.651102,0 -42.916569,19.265467 -42.916569,42.916569c0,23.651102 19.265467,42.916569 42.916569,42.916569c23.651102,0 42.916569,-19.265467 42.916569,-42.916569c0,-23.651102 -19.265467,-42.916569 -42.916569,-42.916569z"/>
   <path fill="#6a737d" stroke="null" id="svg_9" d="m163.33621,278.462986c-59.04944,0 -107.134792,-48.085353 -107.134792,-107.134792s48.085353,-107.134792 107.134792,-107.134792s107.134792,48.085353 107.134792,107.134792s-48.085353,107.134792 -107.134792,107.134792zm0,-171.509645c-35.398338,0 -64.374853,28.819886 -64.374853,64.374853s28.819886,64.374853 64.374853,64.374853s64.374853,-28.819886 64.374853,-64.374853s-28.976515,-64.374853 -64.374853,-64.374853z"/>
   <path fill="#6a737d" stroke="null" id="svg_11" d="m313.387571,385.597778l-42.916569,0l0,-21.458284c0,-59.04944 48.085353,-107.134792 107.134792,-107.134792s107.134792,48.085353 107.134792,107.134792l-42.916569,0c0,-35.398338 -28.819886,-64.374853 -64.374853,-64.374853s-64.374853,28.819886 -64.374853,64.374853l0,21.458284l0.31326,0z"/>
  </g>
 </g>
</svg>