<svg width="512" height="512" xmlns="http://www.w3.org/2000/svg">
 <title/>

 <g>
  <title>background</title>
  <rect fill="none" id="canvas_background" height="402" width="582" y="-1" x="-1"/>
 </g>
 <g>
  <title>Layer 1</title>
  <path fill="#6a737d" id="svg_1" d="m370.24,425.59a14.89,14.89 0 0 1 -7,-1.72l-106.24,-55.87l-106.26,55.87a15,15 0 0 1 -21.74,-15.81l20.3,-118.32l-86,-83.8a15,15 0 0 1 8.31,-25.59l118.81,-17.26l53.13,-107.66a15,15 0 0 1 26.9,0l53.13,107.66l118.8,17.26a15,15 0 0 1 8.32,25.59l-86,83.8l20.3,118.32a15,15 0 0 1 -14.78,17.53l0.02,0zm-264.24,-219.92l69.85,68.09a15,15 0 0 1 4.32,13.24l-16.49,96.14l86.32,-45.36a15,15 0 0 1 14,0l86.34,45.39l-16.51,-96.17a15,15 0 0 1 4.31,-13.27l69.86,-68.06l-96.53,-14a15,15 0 0 1 -11.29,-8.2l-43.18,-87.47l-43.17,87.47a15,15 0 0 1 -11.3,8.2l-96.53,14z"/>
 </g>
</svg>