<svg width="157" height="157" viewBox="0 0 157 157" fill="none" xmlns="http://www.w3.org/2000/svg">
<path d="M13.0833 19.625H52.3333C59.2731 19.625 65.9287 22.3818 70.8359 27.289C75.7431 32.1962 78.4999 38.8518 78.4999 45.7917V137.375C78.4999 132.17 76.4323 127.178 72.7519 123.498C69.0715 119.818 64.0798 117.75 58.8749 117.75H13.0833V19.625Z" stroke="#959DA5" stroke-width="2" stroke-linecap="round" stroke-linejoin="round"/>
<path d="M143.917 19.625H104.667C97.7268 19.625 91.0712 22.3818 86.164 27.289C81.2568 32.1962 78.5 38.8518 78.5 45.7917V137.375C78.5 132.17 80.5676 127.178 84.248 123.498C87.9284 119.818 92.9201 117.75 98.125 117.75H143.917V19.625Z" stroke="#959DA5" stroke-width="2" stroke-linecap="round" stroke-linejoin="round"/>
</svg>
