<svg width="768.0000000000001" height="1024" xmlns="http://www.w3.org/2000/svg">

 <g>
  <title>background</title>
  <rect fill="none" id="canvas_background" height="402" width="582" y="-1" x="-1"/>
 </g>
 <g>
  <title>Layer 1</title>
  <path fill="#ffffff" id="svg_1" d="m320,256l-64,0l0,64l64,0l0,-64zm0,-128l-64,0l0,64l64,0l0,-64zm384,-128l-640,0c0,0 -64,0 -64,64l0,768c0,64 64,64 64,64l128,0l0,128l96,-96l96,96l0,-128l320,0c0,0 64,-1.125 64,-64l0,-768c0,-64 -64,-64 -64,-64zm0,768c0,61.625 -64,64 -64,64l-256,0l0,-64l-192,0l0,64l-64,0c-64,0 -64,-64 -64,-64l0,-64l640,0l0,64zm0,-128l-512,0l0,-576l513,0l-1,576zm-384,-128l-64,0l0,64l64,0l0,-64zm0,-128l-64,0l0,64l64,0l0,-64z"/>
 </g>
</svg>