<svg width="512" height="512" xmlns="http://www.w3.org/2000/svg" style="vector-effect: non-scaling-stroke;" stroke="null">
 <title style="vector-effect: non-scaling-stroke;" stroke="null"/>

 <g stroke="null">
  <title stroke="null">background</title>
  <rect stroke="null" fill="none" id="canvas_background" height="402" width="582" y="-1" x="-1"/>
 </g>
 <g stroke="null">
  <title stroke="null">Layer 1</title>
  <path fill="#6a737d" stroke="null" id="svg_1" d="m397.290412,500.595703a18.53186,18.603444 0 0 1 -8.71209,-2.148954l-132.224635,-69.803522l-132.249526,69.803522a18.668764,18.740878 0 0 1 -27.057262,-19.752885l25.265061,-147.828042l-107.034249,-104.699036a18.668764,18.740878 0 0 1 10.342495,-31.971937l147.869059,-21.564503l66.124763,-134.509525a18.668764,18.740878 0 0 1 33.479317,0l66.124763,134.509525l147.856613,21.564503a18.668764,18.740878 0 0 1 10.354941,31.971937l-107.034249,104.699036l25.265061,147.828042a18.668764,18.740878 0 0 1 -18.394956,21.901839l0.024892,0zm-328.868952,-274.766253l86.934213,85.07109a18.668764,18.740878 0 0 1 5.376604,16.541948l-20.523195,120.116531l107.432516,-56.672414a18.668764,18.740878 0 0 1 17.42418,0l107.457407,56.709896l-20.548087,-120.154013a18.668764,18.740878 0 0 1 5.364158,-16.57943l86.946658,-85.033609l-120.139721,-17.491486a18.668764,18.740878 0 0 1 -14.051357,-10.245013l-53.74115,-109.284304l-53.728704,109.284304a18.668764,18.740878 0 0 1 -14.063802,10.245013l-120.139721,17.491486z"/>
 </g>
</svg>